/* XPM */
static char *result[] = {
/* columns rows colors chars-per-pixel */
"100 100 50 1 ",
"  c #021A78",
". c #021A79",
"X c #031A79",
"o c #021B79",
"O c #023598",
"+ c #033598",
"@ c #023499",
"# c #023599",
"$ c #033599",
"% c #0657C0",
"& c #0757C0",
"* c #0756C1",
"= c #0657C1",
"- c #0757C1",
"; c #0779E8",
": c #0778E9",
"> c #0679E9",
", c #0779E9",
"< c #077AE9",
"1 c #077BE9",
"2 c #C956A1",
"3 c #C957A1",
"4 c #1199E8",
"5 c #1099E9",
"6 c #1199E9",
"7 c #1299E9",
"8 c #1AB0F0",
"9 c #1AB1F0",
"0 c #1BB1F0",
"q c #1AB1F1",
"w c #1BB1F1",
"e c #22D1F8",
"r c #23D1F8",
"t c #23D1F9",
"y c #70C1C8",
"u c #70C0C9",
"i c #70C1C9",
"p c #71C1C9",
"a c #98F0F8",
"s c #99F0F8",
"d c #C1D8F0",
"f c #C1D9F0",
"g c #C1D9F1",
"h c #F8F8E8",
"j c #F8F8E9",
"k c #F8F9E9",
"l c #E0F0F8",
"z c #E1F0F8",
"x c #E1F1F8",
"c c None",
/* pixels */
"cccccccccccccccccccccccccccccccccccccccccccccccccccccccccccccccccccccccccccccccccccccccccccccccccccc",
"cccccccccccccccccccccccccccccccccccccccccccccccccccccccccccccccccccccccccccccccccccccccccccccccccccc",
"cccccccccccccccccccccccccccccccccccccccccccccccccccccccccccccccccccccccccccccccccccccccccccccccccccc",
"cccccccccccccccccccccccccccccccccccccccccccccccccccccccccccccccccccccccccccccccccccccccccccccccccccc",
"cccccccccccccccccccccccccccccccccccccccccccccccccccccccccccccccccccccccccccccccccccccccccccccccccccc",
"cccccccccccccccccccccccccccccccccccccccccccccccccccccccccccccccccccccccccccccccccccccccccccccccccccc",
"cccccccccccccccccccccccccccccccccccccccccccccccccccccccccccccccccccccccccccccccccccccccccccccccccccc",
"cccccccccccccccccccccccccccccccccccccccccccccccccccccccccccccccccccccccccccccccccccccccccccccccccccc",
"cccccccccccccccccccccccccccccccccccccccccccccccccccccccccccccccccccccccccccccccccccccccccccccccccccc",
"cccccccccccccccccccccccccccccccccccccccccccccccccccccccccccccccccccccccccccccccccccccccccccccccccccc",
"cccccccccccccccccccccccccccccccccccccccccccccccccccccccccccccccccccccccccccccccccccccccccccccccccccc",
"cccccccccccccccccccccccccccccccccccccccccccccccccccccccccccccccccccccccccccccccccccccccccccccccccccc",
"cccccccccccccccccccccccccccccccccccccccccccccccccccccccccccccccccccccccccccccccccccccccccccccccccccc",
"cccccccccccccccccccccccccccccccccccccccccccccccccccccccccccccccccccccccccccccccccccccccccccccccccccc",
"cccccccccccccccccccccccccccccccccccccccccccccccccccccccccccccccccccccccccccccccccccccccccccccccccccc",
"cccccccccccccccccccccccccccccccccccccccccccccccccccccccccccccccccccccccccccccccccccccccccccccccccccc",
"cccccccccccccccccccccccccccccccccccccccccccccccccccccccccccccccccccccccccccccccccccccccccccccccccccc",
"cccccccccccccccccccccccccccccccccccccccccccccccccccccccccccccccccccccccccccccccccccccccccccccccccccc",
"cccccccccccccccccccccccccccccccccccccccccccccccccccccccccccccccccccccccccccccccccccccccccccccccccccc",
"cccccccccccccccccccccccccccccccccccccccccccccccccccccccccccccccccccccccccccccccccccccccccccccccccccc",
"cccccccccccccccccccccccccccccccccccccccccccccccccccccccccccccccccccccccccccccccccccccccccccccccccccc",
"cccccccccccccccccccccccccccccccccccccccccccccccccccccccccccccccccccccccccccccccccccccccccccccccccccc",
"cccccccccccccccccccccccccccccccccccccccccccccccccccccccccccccccccccccccccccccccccccccccccccccccccccc",
"cccccccccccccccccccccccccccccccccccccccccccccccccccccccccccccccccccccccccccccccccccccccccccccccccccc",
"cccccccccccccccccccccccccccccccccccccccccccccccccccccccccccccccccccccccccccccccccccccccccccccccccccc",
"cccccccccccccccccccccccccccccccccccccccccccccccccccccccccccccccccccccccccccccccccccccccccccccccccccc",
"cccccccccccccccccccccccccccccccccccccccccccccccccccccccccccccccccccccccccccccccccccccccccccccccccccc",
"cccccccccccccccccccccccccccccccccccccccccccccccccccccccccccccccccccccccccccccccccccccccccccccccccccc",
"cccccccccccccccccccccccccccccccccccccccccccccccccccccccccccccccccccccccccccccccccccccccccccccccccccc",
"cccccccccccccccccccccccccccccccccccccccccicccccccccccccccccccccccccccccccccccccccccccccccccccccccccc",
"cccccccccccccccccccccccccccccccccccccpiiiauuuicccccccccccccccccccccccccccccccccccccccccccccccccccccc",
"ccccccccccccccccccccccccccccccccccccciiiiauuuycccccccccccccccccccccccccccccccccccccccccccccccccccccc",
"cccccccccccccccccccccccccccccccccccccccccicccccccccccccccccccccccccccccccccccccccccccccccccccccccccc",
"cccccccccccccccccccccccccccccccccccccccccicccccccccccccccccccccccccccccccccccccccccccccccccccccccccc",
"cccccccccccccccccccccccccccccccccccccccccccccccc,,,6666ccccccccccccccccccccccccccccccccccccccccccccc",
"ccccccccccccccccccccccccccccccccccccccccccccc6iy65,,,,,6666ccccc22cccccccccccccccccccccccccccccccccc",
"ccccccccccccccccccccccccccccccccccccccccccccc6ii66,,,,,6666ccccc22cccccccccccccccccccccccccccccccccc",
"cccccccccccccccccccccccccccccccccccccccccc888trrss9,,----,,99ccccccccccccccccccccccccccccccccccccccc",
"cccccccccccccccccccccccccccccccccccccccccc8q8trrss9:,----,,99ccccccccccccccccccccccccccccccccccccccc",
"cccccccccccccccccccccccccccccccccccccccccgdddzzzdds66---*==77zcccccccccccccccccccccccccccccccccccccc",
"cccccccccccccccccccccccccccccccccccccccccfdddzzzdds64--*&==77zcccccccccccccccccccccccccccccccccccccc",
"cccccccccccccccccccccccccccccccccccccccggzzzzjjjzzr66--####,,966cccccccccccccccccccccccccccccccccccc",
"cccccccccccccccccccccccccccccccccccccccggzzzzjjhlzr66--####,,966cccccccccccccccccccccccccccccccccccc",
"cccccccccccccccccccccccccccccccccccccccrrfxzxjjjdf9>>--######-,,cccccccccccccccccccccccccccccccccccc",
"cccccccccccccccccccccccccccccccccccccccrrfxxxkjjff9>>-*######-,,cccccccccccccccccccccccccccccccccccc",
"ccccccccccccccccccccccccccccccccccccc::66wfgfzffrr6==#########--,,3ccccccccccccccccccccccccccccccccc",
"ccccccccccccccccccccccccccccccccccccc,,,,6099666,,-##...X$$##&99::cccccccccccccccccccccccccccccccccc",
"ccccccccccccccccccccccccccccccccccccc,,,,6999666,,-#@....$+##&99::cccccccccccccccccccccccccccccccccc",
"ccccccccccccccccccccccccccccccccccccc,,&&-,,,;,,**@##oo..XX###,,,,cccccccccccccccccccccccccccccccccc",
"ccccccccccccccccccccccccccccccccccccc,,&&-,:,;,:**###oo.oXX#$#,,,,cccccccccccccccccccccccccccccccccc",
"ccccccccccccccccccccccccccccccccccccc::--####-O#..#&-##XX####O--,,cccccccccccccccccccccccccccccccccc",
"ccccccccccccccccccccccccccccccccccccccc,,-##OO..oo.##..##--**#,,cccccccccccccccccccccccccccccccccccc",
"ccccccccccccccccccccccccccccccccccccccc,,-####..oo.##..##--**#,,cccccccccccccccccccccccccccccccccccc",
"ccccccccccccccccccccccccccccccccccccccc>,,----##.. XX##--66,,->>cccccccccccccccccccccccccccccccccccc",
"ccccccccccccccccccccccccccccccccccccccc,,,&---##.. XX##--66,,->>cccccccccccccccccccccccccccccccccccc",
"ccccccccccccccccccccccccccccccccccccccccc6,,,,--##.$$--6699661cccccccccccccccccccccccccccccccccccccc",
"ccccccccccccccccccccccccccccccccccccccccc6,:,:--##.$$--669966<cccccccccccccccccccccccccccccccccccccc",
"ccccccccccccccccccccccccccccccccccc66cccccrrr,--@@O##--,,66,>ccccccccccccccccccccccccccccccccccccccc",
"ccccccccccccccccccccccccccccccccccc66cccccrre,*-@@O$#--,,66,,ccccccccccccccccccccccccccccccccccccccc",
"ccccccccccccccccccccccccccccccccccccccccccccc6>,---==:,,,,,ccccccccccccccccccccccccccccccccccccccccc",
"ccccccccccccccccccccccccccccccccccccccccccccc6>>---=%,,,,,,ccccccccccccccccccccccccccccccccccccccccc",
"cccccccccccccccccccccccccccccc66ccccccccccccc6cc,,,66,,ccccccccccccccccccccccccccccccccccccccccccccc",
"cccccccccccccccccccccccccccccccccccccccccccccccccccccccccccccccccccccccccccccccccccccccccccccccccccc",
"cccccccccccccccccccccccccccccccccccccccccccccccccccccccccccccccccccccccccccccccccccccccccccccccccccc",
"ccccccccccccccccccccccccccccccccccccccc66ccccccccccccccccccccccccccccccccccccccccccccccccccccccccccc",
"ccccccccccccccccccccccccccccccccccccccc64ccccccccccccccccccccccccccccccccccccccccccccccccccccccccccc",
"cccccccccccccccccccccccccccccccccccccccccccccccccccccccccccccccccccccccccccccccccccccccccccccccccccc",
"cccccccccccccccccccccccccccccccccccccccccccccccccccccccccccccccccccccccccccccccccccccccccccccccccccc",
"cccccccccccccccccccccccccccccccccccccccccccccccccccccccccccccccccccccccccccccccccccccccccccccccccccc",
"cccccccccccccccccccccccccccccccccccccccccccccccccccccccccccccccccccccccccccccccccccccccccccccccccccc",
"cccccccccccccccccccccccccccccccccccccccccccccccccccccccccccccccccccccccccccccccccccccccccccccccccccc",
"cccccccccccccccccccccccccccccccccccccccccccccccccccccccccccccccccccccccccccccccccccccccccccccccccccc",
"cccccccccccccccccccccccccccccccccccccccccccccccccccccccccccccccccccccccccccccccccccccccccccccccccccc",
"cccccccccccccccccccccccccccccccccccccccccccccccccccccccccccccccccccccccccccccccccccccccccccccccccccc",
"cccccccccccccccccccccccccccccccccccccccccccccccccccccccccccccccccccccccccccccccccccccccccccccccccccc",
"cccccccccccccccccccccccccccccccccccccccccccccccccccccccccccccccccccccccccccccccccccccccccccccccccccc",
"cccccccccccccccccccccccccccccccccccccccccccccccccccccccccccccccccccccccccccccccccccccccccccccccccccc",
"cccccccccccccccccccccccccccccccccccccccccccccccccccccccccccccccccccccccccccccccccccccccccccccccccccc",
"cccccccccccccccccccccccccccccccccccccccccccccccccccccccccccccccccccccccccccccccccccccccccccccccccccc",
"cccccccccccccccccccccccccccccccccccccccccccccccccccccccccccccccccccccccccccccccccccccccccccccccccccc",
"cccccccccccccccccccccccccccccccccccccccccccccccccccccccccccccccccccccccccccccccccccccccccccccccccccc",
"cccccccccccccccccccccccccccccccccccccccccccccccccccccccccccccccccccccccccccccccccccccccccccccccccccc",
"cccccccccccccccccccccccccccccccccccccccccccccccccccccccccccccccccccccccccccccccccccccccccccccccccccc",
"cccccccccccccccccccccccccccccccccccccccccccccccccccccccccccccccccccccccccccccccccccccccccccccccccccc",
"cccccccccccccccccccccccccccccccccccccccccccccccccccccccccccccccccccccccccccccccccccccccccccccccccccc",
"cccccccccccccccccccccccccccccccccccccccccccccccccccccccccccccccccccccccccccccccccccccccccccccccccccc",
"cccccccccccccccccccccccccccccccccccccccccccccccccccccccccccccccccccccccccccccccccccccccccccccccccccc",
"cccccccccccccccccccccccccccccccccccccccccccccccccccccccccccccccccccccccccccccccccccccccccccccccccccc",
"cccccccccccccccccccccccccccccccccccccccccccccccccccccccccccccccccccccccccccccccccccccccccccccccccccc",
"cccccccccccccccccccccccccccccccccccccccccccccccccccccccccccccccccccccccccccccccccccccccccccccccccccc",
"cccccccccccccccccccccccccccccccccccccccccccccccccccccccccccccccccccccccccccccccccccccccccccccccccccc",
"cccccccccccccccccccccccccccccccccccccccccccccccccccccccccccccccccccccccccccccccccccccccccccccccccccc",
"cccccccccccccccccccccccccccccccccccccccccccccccccccccccccccccccccccccccccccccccccccccccccccccccccccc",
"cccccccccccccccccccccccccccccccccccccccccccccccccccccccccccccccccccccccccccccccccccccccccccccccccccc",
"cccccccccccccccccccccccccccccccccccccccccccccccccccccccccccccccccccccccccccccccccccccccccccccccccccc",
"cccccccccccccccccccccccccccccccccccccccccccccccccccccccccccccccccccccccccccccccccccccccccccccccccccc",
"cccccccccccccccccccccccccccccccccccccccccccccccccccccccccccccccccccccccccccccccccccccccccccccccccccc",
"cccccccccccccccccccccccccccccccccccccccccccccccccccccccccccccccccccccccccccccccccccccccccccccccccccc",
"cccccccccccccccccccccccccccccccccccccccccccccccccccccccccccccccccccccccccccccccccccccccccccccccccccc",
"cccccccccccccccccccccccccccccccccccccccccccccccccccccccccccccccccccccccccccccccccccccccccccccccccccc"
};
