/* XPM */
static char *result[] = {
/* columns rows colors chars-per-pixel */
"100 100 53 1 ",
"  c #2E3934",
". c #2E3835",
"X c #2E3935",
"o c #2F3935",
"O c #2F3A35",
"+ c #2E3836",
"@ c #2F3836",
"# c #2E3936",
"$ c #2F3936",
"% c #2E3837",
"& c #2F3837",
"* c #2E3937",
"= c #2F3937",
"- c #2E3A36",
"; c #2F3A36",
": c #2E3B36",
"> c #2E3A37",
", c #303836",
"< c #303936",
"1 c #313936",
"2 c #303837",
"3 c #303937",
"4 c #313937",
"5 c #303A36",
"6 c #48682A",
"7 c #48692A",
"8 c #48682B",
"9 c #49692B",
"0 c #4A682A",
"q c #4B682A",
"w c #4A692A",
"e c #4B692A",
"r c #4A682B",
"t c #4B682B",
"y c #4A692B",
"u c #4B692B",
"i c #33946E",
"p c #32956E",
"a c #33956E",
"s c #33956F",
"d c #34946E",
"f c #35946E",
"g c #34956E",
"h c #35956E",
"j c #34946F",
"k c #34956F",
"l c #35956F",
"z c #34966E",
"x c #35966E",
"c c #34966F",
"v c #349570",
"b c #359570",
"n c #349571",
/* pixels */
"*#***************=******=******&#********=**uyyu*****%******#$=**#*************#****==**#***********",
"%***%************%***#*****=**#***ywuyyy*yyygggwyuy*****yyyw***yyuuy*%*******#********=*#***********",
"#*******#****%*******=************yyryyr*yyygggyyyy*****yyyw=**y*wyy**#**%**%************%*#****=***",
"******#*********#****************egggayyyygggyyygggyyyy*vvggwyygyyggww***=*****#*#****=*************",
"%*****************%**#***yy##yyyyydggygggygggyyggggygggyywhgg*y*yyggyy*#*wyyyw#****##**************#",
"****#%*****=****yyy**%*yydggktbvgyyygyggg*yydgggyry#yhhgyy*gggyggggyyyyhk+gggue*%*uyyy******=***%***",
"***#*#********yggg-##*yywgdgg#yr*gyyggggygyy*yyyykkwyuyagggyczyggggyggghgyy*ggyuy###gg#7***********#",
"**#***=**=****yggg-%#wyyygggg9yy*gywggggygyydyyyyggyyuysgggyzzyggggygggggyygggyuu##+gg7#%**#**%**#**",
"***********#yyggyyyhlvgwryygggwyggw*gyyygvggy##ygrugw*yyyyygaayyggwygggggg#gggygggryrgddy%**********",
"*#*******#**ww*dyygdgggyyy###gggzgyyyyyyy*gg#wyyaggyyyy$yy#yyy*gyyeywyyyygfgggygggggydggt***#*#*%**#",
"==******yry#yyhgggggg#wryy###yggggyyyw+#yyyy#yy+yy=yw##y++r###gzyy#yyuyyywgggyyy*ggggdggw#yyy**#****",
"*******yyyd#wygkggywyy#y0%#yy#t*gyyyy0yw##$#r##yy##y###yry##wyyy###wyy$yy#ugg*#yuyyygggge-ggyuy****=",
"**%****uyyg#yyggggyuyy#yy+#uy#**gwyyyew0*###y+#yw%+y###yyy+#yy*u###yry#uy#ygg*#yryywggggy-gguyy*****",
"******#wgggyaayg**Xwryyyy$ryyy##yy#*yr#$y###y##yyyyy###w*yy#yu##yry-yy%##y+wy#yyyr**ygyygyvvvyy*****",
"*****yy*yugyhgyg##y##$yyy#$yyy--X##*yr#*y#yyyyy:###*#yy###y@yy#y+#y#yyy##y####y###**#gyegyggyw*y**#*",
"****yggkyygdfgyy##yyy##uyyyyy####yyy*0uuy$y*####$##*#yyy#$#yyr##yyy$--y**yyyeyy##yyy#yrygggg#ggvy%*#",
"*%**ygkgggygyyyywyu#*#$#*yy##yyy##ry##yy**####+yy$###**y<<#+###$##y+##=$##yyy#yyy#yrywyyyhuyhgggy***",
"****ygggggygywyyyyw#####$yy##yyy##yy##yy#######yy##*#**y<<#+###$#=y+#$$###yyy#y#y+yyyyyuygy=ggghy***",
"****ywyvgghyggyywy#$#y$yy#y###yy+###-####y#$###yu>-####*######<######@#+#*y###y*###$yy**gyvvgdh#y**$",
"**=yyuuywyhgyyy#yy$yy#w##*####<<##<<##+##y#*###y########--#y#$########yuy##**###9w##r+uuygggwyyyuyy#",
"*yygz$*##+ygy*yy#@1yy+y###++#######*7#$#######*###*#######+#1<$$yy-###y###+###yyy1yyXyywygyy-<3#vddy",
"*yygguygryyy$$w###*yyy###$####--####*########$*###########$##$+##+#o##*#+$##%$#**#**+#yy*yryyggy*kgy",
"*uyggy*gyyyy##w####ywy###*##$#:-#*##**#######*###*+*############+##X###########*$#**+#yy#yyyyggygggy",
"*yygghgd0w##*##yyw+#+y#+##y##X#$#+--###$#+########+#5#+*uy###*#$##$#+####*##*##$#ywwy+yyy###yhgbgdhy",
"***ydyyy###y$#yy##*+#$#######################--######*#+####=####=###*#####yy#*++y####yy#yye#y*ggyy*",
"***ruwy#yyggyy#*yy####*###$####$#####+$#+####**$*#$######################$#$##+###*#y#*#ugggyyy$gyy*",
"***yyyy#ggkgwwryyyy#####+#X#+#XX######,<#$##*####<<+##$#*#######*%#####=####$##<<#yy9y##yzggg*#reyy*",
"***yyy0@ggdgwwyyyyy#####$#X###oo######<1###%#####<<%###*#####+#*%*##++$##$#####<<#yy#y##yzggg##y*yr*",
"***wgggyggdyyywy##y#+##-;################$++<####@##*######+####+####$#%+#####r*##*=ryyyyygghyyhgyy*",
"*$%ygggrggayyy####<yw*$+################X#**#<<############-##*+##$++*#####+#####yyy#y#$yygggy0gy***",
"****ygggggy###yyyy<###*%&####+##$#+%##*########%*##*#*####*####<###$#####*##*#+*#yyy#y##y#yydggg#***",
"*#*yywwdyyyyyy#yyyy##y#########+#########$#$########++##+#######*##$##+*#####y#*#y*##*###yyyuggyyyy*",
"***yywwkyy*yuy#y*yu##y#+#+######+########$###+###=#########+##########+###$##u###y#######yuyyggyyyy#",
"*wygy###yyy*yy;uryy##wy####XX#####$#*##*#+$+*###$$###$##+#+#.XX#######+*#####y#######y##u*yyy###ydd*",
"#yygg##jyyyyyyyyyyy$$####=$-;+###**#-##########$###*######*####<-;#<##=+########*###y#ryy#wwgghwgggw",
"*uegygkggg*ywwu#**#########@#$##*########$#######yy####w+#@#############$#######*#yyy#yyyygggggdtggy",
"*yygggggyyyyuuyyyy-yyy###*##$#--#*####;-*#######wyyy$yyyyy###*<####$#########$#yy#yyyy##yyuyyggggggy",
"*uydggggyyyyuuyyyy-yyy########--#*####--#####$##wyyy+yyyyy###$<$#*####$########yy$yyyy##yywyydgghggr",
"****gwyyyy*g##yy#+#yy*###X############$########+#yyy#yuy##########$#####*+$##$####yyyy#+yyvv#wwwguy*",
"***yyyy*gggy##y#+####y###O+###*#++#######+##yuyy#**yryyy####yry-####*##XX#*###+++##$yw##y*ghg+#r*yy#",
"*%*ygkhygggyw*y###9yy##$#<####$##+###*$*yyyy#yyy$##yyuy$##yy##yy###-##+*#*#++*<<<wye#yyyyugggyygdyy=",
"*****gghggy*yyyywy#yyr*#########*#$$##**yyyyw##y####yyyry*#yyy#u+*$####$##+######ruyy#uy#uggddkgu#**",
"****ygghhgy*yyyyyy#yyy##$##+*##*##$$##**yyyyy#$y*###yyyyy*#wyr#u#######$####*####yyyy#yy#thgdgggu***",
"*****yypyyw#yyXywyyyy##*y+$###XX#yuw#*uy*+yyy=%yyggy*gggggu###yy$####$##@$X*######yyy+yy##yygggy***=",
"*******yggg###yy--yyy+*%%###$<++#<uy#y####+##yyyggggd##ggg*w###w$###XX+##*########yy#yyyyy###yyy****",
"****rywgyyygfgyyyw#ryy#####-:@#+##yyyr###ryyy##w0ggggggygdgy##############+###ywy#yy#yy*#gdg#ggu#***",
"****yvnwgggg#*#=**#yyy#+#*#######*##y###ygggg##gyyyyggggggzy+#$#####$*#$###$###wy#ywy#yyjgggygggy**#",
"****wvvygggg###y#*#u=y#####$#####*#$y$##yhggg##guwryddhgghxy#+##########+######wy$yyy#yyggggygggy***",
"***wdggggggy+###y*u#$y#*#+$##########*wqgkghyggghyyyywwkgggw@#y*##$:#######*##y###$#uyyywgggygggy***",
"***rghgy#*#$yyy###y#+X###########$####yrggyygggggyryyyyyggy#wuy*-;#+##$####<4#+#######yyyghhaggy*%**",
"***ygyy*#+yu##y####wy#+##$$###*#####$#yygggggggyyyt###*yyyw##*#r*#+#$###$*#+#####yyt##yy#wkgggg**##*",
"*yy*#yy0yyyyyyyyyr#$#yy##<######=#yww#yyghggyyuyu#$#yyy$yy#-#####*######*$#####yrw##y#yy#yuyg*wy****",
"*yw*#yy0yyyyyyyyyy#*$yy##<#######*yuy#wygggkyyryy##+yyy$yu#-###$###*###$##*#+##yyy##*#yy#yyygyyu***=",
"yggg#*wgyy#yyyy#=y####y##+<######yey####uguwyyy##ywry*wy##*=#+##+#######*######yy#**uyryy+**yyy**%**",
"y*ggygggyu+*wyy#yy###$##$$####+##yyyyy##$ywy#$*####yyyy#######$###*##$$##+-##-*yr*uyyu##ywuyuyy*****",
"@yygdzzyyyyy--yyyy#**#####+##$###$yyy###%u##yyy*$uy##yy####*###-#$$############**yyw*y31yygggyyy=***",
"*%yggaiy--yy##w*###yry*#$X########ey#X##*###y#+yy+#+##+##+###$#*##$##$########+##*ww#yywyhuurggvy***",
"*yyhdai*--yy##w*$#*ryy+##X###$####yu#X#####*y##yy####$##*#+#######$#**#$#########yww$ywyuguuyggvy***",
"***rdyyg##gg@$#y###yy########X####*+##$#*###wyyy##########+############+#$###$y##y###*yyywggggghy**%",
"***yygggggwhhd$#+####y#+%#+###########*#+###w########$#####$####XX*#######$#######,<yyyygygghghy****",
"***yuwyghggggg#yX.r@######$#$###*$##++#######*+$$$#X+########$X<##<1##*##**######yety#yyggggyeryy***",
"*yy*gyyyzzggggyywy*yy##yr+#+@###=#####*#$####+######+>-##$#*#*#@####--###*#*###*#y##$#yyggyy#ywdfyy*",
"*wyggyyyzzdgghy*yy#yy##yy##++###$$*####$###*$##*###=#--$######*$##+#--#########+#y##$#yrggyr#yydhyy*",
"ydgkg##*rygkyy#yyyyyy#*######+###+#*#+--$*#*###########<##############+$*#*###+#$#yy&yyygwyy#*$gkggy",
"ugggygghyygy####yeyyy#########*+*#########+#*##$#+#*#+%####+#$##*$#############yy##$y,yyy#wygdgygdjy",
"yggggddgwy#ywyy#$#y1<*####*###&*####$##+###*#####$##########*##X#######+#########Xwyy#####yrggg*gggw",
"*uukhyy$ggggyy*y++y+##y###+##+###+###X###############*#o##*+##################y*#$##y0#$ygdg#yyggry#",
"*uuggyy#gggd*y$y%+r#$$y+########+##$#X####$#=#########*X##*@##$#*###$#####*###y#####y*##yggg#yyggyr*",
"**#yyggygggy###w##*#%##<<*########***+<<#####+#+$#############+#$#5#####+*$#*###+#XX#y###ygdgyeruy**",
"*%*yggfwggv+yyy#yy#yy#####+######+###*#####$###*##+#########<3+*##+#**###<-##+**#y##y+wyywgggyyd*uw*",
"***yggdygggryy*$##ywy#-ww######$#$##*$+###+##**#*#$####++####$+-#*<*######*+#w###ywy####yygdzyydg0w*",
"#=#%uggzggyw*#*yyy#yy###+#####*#####<##+##########*####<#####@#########$$*##$$+@+w##yy###ywyhgggy***",
"****yggzgjyr+##yyy+yy#######++*####*<#################*<##@$#######=$###$######+%y##uy###yyyggggy*#*",
"*=**urygyyy$--y#yy#yyyy##*####$##X####$#<###<###+*#-######X#*####+###+-#####$#yyyy##y#ry##yyydgwy%**",
"****ygkyuyyyewyy##y*w$yyy##############+###$X*+##<<#######<#++########<######y8##yuu#yuyyyyy*yygy***",
"***yvgdygggyry##*#yyy#yuu#y###<<X########X###XX#y#######+##+###$#*yy#####*y<<yu+#yyy####yyggguyghyu*",
"***ygwugggyy###yyy#yyy#yy-y########+y-####+####+########<<#########+###**#y+#y#ywy##ryzzgyyyhggygye*",
"***ydyygghyy$##yry+yyy#yy-y####$###$y-#+**###*#**#######4<#*#+##$*+####**#w##y#yyy#$yyzzgyywgggyg#y*",
"***ygkggyyygyyg*ggy##y#**#+$###$*######**###########X######=yy#*##$##########y#yy#yyraczygryyhgggyw*",
"=#%*yhgygggyhgghggy=*##yyyy###<<###$#:*#*#yy#$$$*####wy+$##u###***$y##*###yyyy+##uyyyggggygggrugu***",
"**#*yyyyhggggggyryy##yy##yy##y##y###$####wyy*##y+####>-y###+$#####*yyy+##y#yy$ywy#*yyygggugggyyyy***",
"***=*uy*yyggy#ygyyyyyyyyyyy.X#yryyuyy####+%#X1<yw@#*#--##$yy#+y#$#$###X##y#ryuyyyy*yyyyrggyyy**y*%=*",
"***%*yw*0ydgyurhyywyyyy*uyy.X#yyyyyyy#######X<<yw####--###yy##r##*##$#X##y#uyyyyyyyyyyyyggyyy#*u****",
"********yyguyykyggyyygy#*ywX #yyy####$#######*##y#+@#XX##@#wuy#y###o###$##wyy#tggyyy#<yrgy*********#",
"***%**=*yyyyyy=gy=*ggygyy##++##*1#yyw#yyw###$*++-#+#y##y####yyww*###>-#######9h**gggg*##wy%*=******%",
"*******%**yyggy*+#gkggy#+yyywy#*##yywy#*yy$##yyy#*#ry*##yyu###y##+y#yyy##uu**#ugggggygdggy*********=",
"*=*********ygg*ghgygggy##y###y##r#yrwy##ww##u#+y+*#yyyryyyyyu*#$yywy##yyr#y###yhhg*tghaahy****#*****",
"****%*****=*gg*gghygggr=#u###y##y#yyyy#=ww##u##y##@0yy*ywyyyyy##y=yy#**yy#w##$yggg**ghaagy*********+",
"**********##yyyg*ggggyyuy*wyyy*yyyrywyyyry##yyy*u$$#wyryyy#w##y###yyyyyyyyyyyw#wwgggg*ryy**%*****##*",
"****#*****#*=*#yyyyghyy##yy##ryy#y$##wyyy#*#yywgguuy+wywuu#ryy2yyy#ryyyyy#w##yyyygyeyy************#*",
"***#****##********yywg#yyyyyy+yy#yyyy#ey*#yy*ggyghgyt$#yyu*#yy#ugg#yyuw##yyyyygggy9#y***************",
"*******#****=*****ygggryy*y##yyuyyyyyr##yuwwgggdyggyadg#dfyw##ygaayyyyyryggyyggghgy*******=*********",
"****************=*ygdgyuy*w##wyyyyyyyy#+yywwggghyggya*g#ggyy#*ygaaywrryyygkyuggggd*w*******%**#****%",
"%=%**##**=********yggggyygyyyggdyygggdgdw*uyggggghgygggu*jgy##ygghiwggyyykg=%yyggy**#**%************",
"***********#%******yyg6yyggyygvvyggggwyrhy*#yyy*huu#ygggggy#gggyggeughgrygy**#=yyy%==**#************",
"****%********%#**==**y***yhggguy*yyyhgyygy***%*yyuy**gggggy#yyghyy**yygvvgy*$****y#*********%****#**",
"*****=*+*********#********ygggyy****w0gge#*******yr*#**gwy****yyuy****yzz******=*%*#=**%%***********",
"****************#****%****ygggyy****w*gdw**#*****yy****guy*%**yuyy****yzzy***********#**************",
"******#********************r0y**=***%*wwu**##**********yyy*%=**u*******yyr*****$**********#*#*******",
"*#****#**********************y********#*y*************************************#*******#******=******"
};
